<svg xmlns="http://www.w3.org/2000/svg" xmlns:xlink="http://www.w3.org/1999/xlink" width="454.589" height="580.724" viewBox="0 0 454.589 580.724">
  <defs>
    <clipPath id="clip-path">
      <ellipse id="Ellipse_215" data-name="Ellipse 215" cx="227.294" cy="227.294" rx="227.294" ry="227.294" fill="none"/>
    </clipPath>
  </defs>
  <g id="Group_654" data-name="Group 654" transform="translate(-16754 -2725)">
    <ellipse id="Ellipse_212" data-name="Ellipse 212" cx="227.294" cy="227.294" rx="227.294" ry="227.294" transform="translate(16754 2851.135)" fill="#fff"/>
    <rect id="Rectangle_827" data-name="Rectangle 827" width="96.636" height="105.583" transform="translate(16932.977 3090.5)" fill="#775b2d"/>
    <g id="Group_77" data-name="Group 77" transform="translate(16827.18 2911.509)">
      <ellipse id="Ellipse_213" data-name="Ellipse 213" cx="27.298" cy="38.603" rx="27.298" ry="38.603" transform="translate(0 0)" fill="#775b2d"/>
      <ellipse id="Ellipse_214" data-name="Ellipse 214" cx="27.298" cy="38.603" rx="27.298" ry="38.603" transform="translate(253.635 0)" fill="#775b2d"/>
    </g>
    <rect id="Rectangle_828" data-name="Rectangle 828" width="253.429" height="338.565" rx="126.715" transform="translate(16854.58 2782.815)" fill="#775b2d"/>
    <path id="Path_291" data-name="Path 291" d="M281.1,373.175H212.139c-50.728,0-92.234,41.506-92.234,92.234v154.1c0,50.731,41.506,114.145,92.234,114.145H281.1c50.728,0,92.234-63.415,92.234-114.145v-154.1C373.335,414.681,331.829,373.175,281.1,373.175Zm72.554,220.041c0,50.73-41.5,76.4-92.234,76.4h-29.6c-50.728,0-92.234-25.665-92.234-76.4V491.7c0-21.573.324-76.82,21.9-76.82,19.052,0,41.176-15.414,70.331-15.414h29.6c29.62,0,47.545,4.633,73,15.414,19.235,8.147,19.235,55.711,19.235,76.82Z" transform="translate(16734.676 2409.64)" fill="#1b1d1d"/>
    <g id="Group_79" data-name="Group 79" transform="translate(16754 2851.135)">
      <g id="Group_78" data-name="Group 78" transform="translate(0 0)" clip-path="url(#clip-path)">
        <path id="Path_292" data-name="Path 292" d="M407.073,549.935H136.7c-20.8,0-39,14.488-39,59.984V810.1H446.068V609.92C446.068,564.423,427.871,549.935,407.073,549.935Z" transform="translate(-44.404 -241.867)" fill="#3e8fc6"/>
      </g>
    </g>
    <g id="Group_80" data-name="Group 80" transform="translate(16906.057 2905.57)">
      <ellipse id="Ellipse_216" data-name="Ellipse 216" cx="16.829" cy="16.829" rx="16.829" ry="16.829" fill="#1b1d1d"/>
      <ellipse id="Ellipse_217" data-name="Ellipse 217" cx="16.829" cy="16.829" rx="16.829" ry="16.829" transform="translate(116.815)" fill="#1b1d1d"/>
      <ellipse id="Ellipse_218" data-name="Ellipse 218" cx="7.01" cy="7.01" rx="7.01" ry="7.01" transform="translate(123.487 6.93)" fill="#fff"/>
      <ellipse id="Ellipse_219" data-name="Ellipse 219" cx="7.01" cy="7.01" rx="7.01" ry="7.01" transform="translate(7.002 6.93)" fill="#fff"/>
    </g>
    <g id="Group_81" data-name="Group 81" transform="translate(16896.162 2875.871)">
      <rect id="Rectangle_829" data-name="Rectangle 829" width="53.458" height="11.879" rx="2.789" transform="translate(0 0.28)" fill="#1b1d1d"/>
      <rect id="Rectangle_830" data-name="Rectangle 830" width="53.458" height="11.879" rx="2.789" transform="translate(116.808 0)" fill="#1b1d1d"/>
    </g>
    <rect id="Rectangle_831" data-name="Rectangle 831" width="50.459" height="11.879" rx="2.789" transform="translate(16956.064 2979.629)" fill="#47361c"/>
    <rect id="Rectangle_832" data-name="Rectangle 832" width="20.818" height="11.879" transform="translate(16970.885 2901.61)" fill="#1b1d1d"/>
    <path id="Path_293" data-name="Path 293" d="M150.111,490.519s9.1,36.4,62.4,36.4,62.395-36.4,62.395-36.4Z" transform="translate(16768.789 2542.165)" fill="#fff"/>
    <path id="Path_294" data-name="Path 294" d="M382.546,434.214h-29.7c-1.077,0-16.609-9.9-25.74-9.9H295.429a29.607,29.607,0,0,0-22.043,9.9H230.357a29.609,29.609,0,0,0-22.046-9.9H176.633c-9.131,0-24.66,9.9-25.738,9.9H121.2a5.939,5.939,0,1,0,0,11.878h26.849a29.425,29.425,0,0,0-1.112,7.921v3.958a29.787,29.787,0,0,0,29.7,29.7h31.679a29.787,29.787,0,0,0,29.7-29.7v-3.958a29.54,29.54,0,0,0-.6-5.941h28.923a29.543,29.543,0,0,0-.6,5.941v3.958a29.785,29.785,0,0,0,29.7,29.7h31.679a29.785,29.785,0,0,0,29.7-29.7v-3.958a29.425,29.425,0,0,0-1.112-7.921h26.852a5.939,5.939,0,1,0,0-11.878Zm-178.02,49.325h-24.1a27.547,27.547,0,0,1,0-55.093h24.1a27.547,27.547,0,0,1,0,55.093Zm118.794,0h-24.1a27.547,27.547,0,1,1,0-55.093h24.1a27.547,27.547,0,1,1,0,55.093Z" transform="translate(16729.424 2467.396)" fill="#1b1d1d"/>
    <path id="Path_295" data-name="Path 295" d="M387.84,423.018a23.922,23.922,0,0,0-13.366-36.289,23.924,23.924,0,0,0-42.9-19.13,23.816,23.816,0,0,0-9.384-4.578,23.945,23.945,0,0,0-41.987,3.969,23.921,23.921,0,0,0-44.579-8.788,23.925,23.925,0,0,0-41.231,7.481c-.281-.166-.554-.343-.843-.5a23.916,23.916,0,0,0-43.646,2.855,24,24,0,0,0-14.062,11.5,23.893,23.893,0,0,0-17.457,38.525,23.812,23.812,0,0,0-5.036,14.652c0,.611.047,1.212.092,1.812l-.019-.006.023.089a23.8,23.8,0,0,0,2.063,8l12.057,46.755L160.626,448.9l-4.536-1.382a23.927,23.927,0,0,0,2.738-4.386c.513-.249,1.018-.509,1.508-.792a23.924,23.924,0,0,0,43.16,1.39,23.906,23.906,0,0,0,42.462-7.6,23.906,23.906,0,0,0,38.97-1.335,23.912,23.912,0,0,0,38.546,7.274,23.761,23.761,0,0,0,26.355,10.868L380.4,488.222l8.4-48.3a23.859,23.859,0,0,0,1.048-6.016l.036-.215-.026.008c.013-.326.049-.647.049-.977A23.826,23.826,0,0,0,387.84,423.018Z" transform="translate(16727.273 2378.976)" fill="#1b1d1d"/>
  </g>
</svg>
